<?xml version="1.0" encoding="UTF-8"?>
<!DOCTYPE svg PUBLIC "-//W3C//DTD SVG 1.1//EN" "http://www.w3.org/Graphics/SVG/1.1/DTD/svg11.dtd">
<!-- Creator: CorelDRAW 2021 (64-Bit) -->
<svg xmlns="http://www.w3.org/2000/svg" xml:space="preserve" width="2550px" height="3300px" version="1.1" style="shape-rendering:geometricPrecision; text-rendering:geometricPrecision; image-rendering:optimizeQuality; fill-rule:evenodd; clip-rule:evenodd"
viewBox="0 0 2550 3300"
 xmlns:xlink="http://www.w3.org/1999/xlink"
 xmlns:xodm="http://www.corel.com/coreldraw/odm/2003">
 <defs>
  <style type="text/css">
   <![CDATA[
    .fil0 {fill:#0F0F0F;fill-rule:nonzero}
   ]]>
  </style>
 </defs>
 <g id="Layer_x0020_1">
  <metadata id="CorelCorpID_0Corel-Layer"/>
  <path class="fil0" d="M1168.37 1261l213.26 0c35.95,0 67.73,22.96 79.02,56.99l18.06 54.15 129.72 0c61.3,0 111.15,49.84 111.15,111.14l0 444.58c0,61.3 -49.85,111.14 -111.15,111.14l-666.86 0c-61.39,0 -111.15,-49.84 -111.15,-111.14l0 -444.58c0,-61.3 49.76,-111.14 111.15,-111.14l129.72 0 18.06 -54.15c11.29,-34.03 43.07,-56.99 79.02,-56.99zm106.63 340.67c56.4,0 102.12,45.72 102.12,102.12 0,56.4 -45.72,102.12 -102.12,102.12 -56.4,0 -102.12,-45.72 -102.12,-102.12 0,-56.4 45.72,-102.12 102.12,-102.12zm0 270.62c92.04,0 166.72,-74.68 166.72,-166.72 0,-93.6 -74.68,-166.71 -166.72,-166.71 -93.6,0 -166.72,73.11 -166.72,166.71 0,92.04 73.12,166.72 166.72,166.72z"/>
 </g>
</svg>
